<?xml version="1.0" encoding="utf-8"?>
<!-- Generator: Adobe Illustrator 16.0.0, SVG Export Plug-In . SVG Version: 6.00 Build 0)  -->
<!DOCTYPE svg PUBLIC "-//W3C//DTD SVG 1.1//EN" "http://www.w3.org/Graphics/SVG/1.1/DTD/svg11.dtd">
<svg version="1.1" id="Layer_1" xmlns="http://www.w3.org/2000/svg" xmlns:xlink="http://www.w3.org/1999/xlink" x="0px" y="0px"
	 width="74.333px" height="72.666px" viewBox="0 0 74.333 72.666" enable-background="new 0 0 74.333 72.666" xml:space="preserve">
<g>
	<path d="M13.692,29.132c10.801-2.951,24.41-5.904,29.811-5.904c10.801,0,17.138,5.761,17.138,16.418v0.576
		c-0.145,13.104-10.441,22.682-31.106,28.227c-0.648-1.225-2.16-3.169-3.241-4.393c18.434-4.393,28.875-13.033,28.875-23.979
		c0-6.912-3.313-11.881-11.881-11.881c-5.761,0-17.21,2.592-26.066,5.688c0.071,0.576-0.647,1.296-1.368,1.656L13.692,29.132z"/>
	<path d="M23.773,4.218c9.864,0.864,21.241,2.953,28.946,5.617l-1.512,5.04C43.575,12.282,31.91,9.907,22.55,9.114L23.773,4.218z"/>
</g>
</svg>
