<?xml version="1.0" encoding="utf-8"?>
<!-- Generator: Adobe Illustrator 16.0.0, SVG Export Plug-In . SVG Version: 6.00 Build 0)  -->
<!DOCTYPE svg PUBLIC "-//W3C//DTD SVG 1.1//EN" "http://www.w3.org/Graphics/SVG/1.1/DTD/svg11.dtd">
<svg version="1.1" id="Layer_1" xmlns="http://www.w3.org/2000/svg" xmlns:xlink="http://www.w3.org/1999/xlink" x="0px" y="0px"
	 width="74.333px" height="72.666px" viewBox="0 0 74.333 72.666" enable-background="new 0 0 74.333 72.666" xml:space="preserve">
<path d="M14.88,11.202c-0.145,0.648-0.936,1.08-1.945,1.152c-0.863,5.4-1.367,11.881-1.367,17.93c0,2.664,0.145,5.256,0.287,7.561
	c0.865,12.24,5.834,19.657,11.377,19.586c2.881,0,6.625-7.346,9.217-15.41c1.01,1.008,2.953,2.377,4.178,3.096
	c-3.313,9.722-7.488,17.643-13.465,17.786c-9.146,0.144-15.482-10.944-16.49-24.771c-0.217-2.736-0.287-5.76-0.287-9
	c0-6.337,0.359-13.249,1.08-19.37L14.88,11.202z M62.62,44.685c-2.016-12.601-8.426-21.673-18.146-27.074l3.168-3.888
	c10.514,5.616,18.219,15.985,20.307,29.306L62.62,44.685z"/>
</svg>
