<?xml version="1.0" encoding="utf-8"?>
<!-- Generator: Adobe Illustrator 16.0.0, SVG Export Plug-In . SVG Version: 6.00 Build 0)  -->
<!DOCTYPE svg PUBLIC "-//W3C//DTD SVG 1.1//EN" "http://www.w3.org/Graphics/SVG/1.1/DTD/svg11.dtd">
<svg version="1.1" id="Layer_1" xmlns="http://www.w3.org/2000/svg" xmlns:xlink="http://www.w3.org/1999/xlink" x="0px" y="0px"
	 width="74.333px" height="72.666px" viewBox="0 0 74.333 72.666" enable-background="new 0 0 74.333 72.666" xml:space="preserve">
<g>
	<g>
		<line fill="none" stroke="#000000" stroke-width="5" stroke-miterlimit="10" x1="11.711" y1="25.873" x2="49.212" y2="23.373"/>
		<line fill="none" stroke="#000000" stroke-width="5" stroke-miterlimit="10" x1="8.211" y1="64.04" x2="51.087" y2="22.165"/>
		<path fill="none" stroke="#000000" stroke-width="5" stroke-miterlimit="10" d="M26.463,46.215"/>
		<path d="M26.463,48.373c0,2.083,3.295-1.58,7.248-2.584c5.254-1.333,7.25,0,7.25,2.917c0,3.948-0.121,6.833,0,9.084
			c0.25,4.667,5.325,7.666,7.166,7.999c5.292,0.959,12.418,0.75,17.918,0.168c0.109-1.917,0.068-2.918,0.068-5.084
			c-3.417,0.499-9.566,0.48-12.736,0.417c-4.166-0.084-6.5-1.584-7.123-5.625c-0.295-1.905,0.052-5.448,0.032-7.376
			c-0.05-4.854-3.075-7.445-6.491-7.333c-2.297,0.075-7.01,0.865-8.918,2.146C29.329,44.144,26.463,46.506,26.463,48.373z"/>
	</g>
	<path fill="none" stroke="#000000" stroke-width="5" stroke-miterlimit="10" d="M51.878,11.483
		C41.421,8.531,27.899,6.487,20.095,6.215"/>
</g>
</svg>
