<?xml version="1.0" encoding="utf-8"?>
<!-- Generator: Adobe Illustrator 16.0.0, SVG Export Plug-In . SVG Version: 6.00 Build 0)  -->
<!DOCTYPE svg PUBLIC "-//W3C//DTD SVG 1.1//EN" "http://www.w3.org/Graphics/SVG/1.1/DTD/svg11.dtd">
<svg version="1.1" id="Layer_1" xmlns="http://www.w3.org/2000/svg" xmlns:xlink="http://www.w3.org/1999/xlink" x="0px" y="0px"
	 width="74.333px" height="72.666px" viewBox="0 0 74.333 72.666" enable-background="new 0 0 74.333 72.666" xml:space="preserve">
<g>
	<path d="M64.665,28.645c-3.672-3.672-10.585-7.849-16.417-10.369l2.521-4.248c6.192,2.664,13.104,6.769,17.065,10.369
		L64.665,28.645z"/>
	<path fill="none" stroke="#000000" stroke-width="5" stroke-miterlimit="10" d="M6.499,21.218
		c11.266,1.301,27.586-0.752,35.717-4.002"/>
	<path fill="none" stroke="#000000" stroke-width="5" stroke-miterlimit="10" d="M26.966,5.466c0,0-0.248,38.583-0.248,51.583
		c-0.836,10.834-11.417,12.604-16.336,7.167c-3.166-3.5-2.434-8.906-0.832-12c3.803-7.349,20.582-14.662,30.666-16.079
		c15.832-2.225,23.363,7.583,21.666,16.912c-1.666,9.166-8.5,12.334-15.666,11.5c-3.986-0.464-8.013-3.244-10.75-5.833"/>
</g>
</svg>
